<svg xmlns="http://www.w3.org/2000/svg" width="91" height="45" viewBox="0 0 91 45" fill="none">
  <path d="M21.1761 12.2643H19.0503V14.3083H21.1761V12.2643Z" fill="#FCA311"/>
  <path d="M21.1761 14.3082H19.0503V16.3523H21.1761V14.3082Z" fill="#FCA311"/>
  <path d="M21.1761 16.3523H19.0503V18.3963H21.1761V16.3523Z" fill="#FCA311"/>
  <path d="M19.0503 10.2203H16.9245V12.2644H19.0503V10.2203Z" fill="#FCA311"/>
  <path d="M19.0503 12.2643H16.9245V14.3083H19.0503V12.2643Z" fill="#FCA311"/>
  <path d="M19.0503 14.3082H16.9245V16.3523H19.0503V14.3082Z" fill="#FCA311"/>
  <path d="M19.0503 16.3523H16.9245V18.3963H19.0503V16.3523Z" fill="#FCA311"/>
  <path d="M19.0503 18.3962H16.9245V20.4403H19.0503V18.3962Z" fill="#FCA311"/>
  <path d="M16.9518 8.17615H14.826V10.2202H16.9518V8.17615Z" fill="#FCA311"/>
  <path d="M16.9518 10.2203H14.826V12.2644H16.9518V10.2203Z" fill="#FCA311"/>
  <path d="M16.9518 12.2643H14.826V14.3083H16.9518V12.2643Z" fill="#FCA311"/>
  <path d="M16.9518 14.3082H14.826V16.3523H16.9518V14.3082Z" fill="#FCA311"/>
  <path d="M16.9518 16.3523H14.826V18.3963H16.9518V16.3523Z" fill="#FCA311"/>
  <path d="M16.9518 18.3962H14.826V20.4403H16.9518V18.3962Z" fill="#FCA311"/>
  <path d="M16.9518 20.4404H14.826V22.4845H16.9518V20.4404Z" fill="#FCA311"/>
  <path d="M27.5262 20.4404H25.4004V22.4845H27.5262V20.4404Z" fill="#FCA311"/>
  <path d="M27.5262 22.4844H25.4004V24.5284H27.5262V22.4844Z" fill="#FCA311"/>
  <path d="M29.6247 22.4844H27.499V24.5284H29.6247V22.4844Z" fill="#FCA311"/>
  <path d="M27.5262 24.5283H25.4004V26.5723H27.5262V24.5283Z" fill="#FCA311"/>
  <path d="M25.4004 18.3962H23.2747V20.4403H25.4004V18.3962Z" fill="#FCA311"/>
  <path d="M25.4004 20.4404H23.2747V22.4845H25.4004V20.4404Z" fill="#FCA311"/>
  <path d="M25.4004 22.4844H23.2747V24.5284H25.4004V22.4844Z" fill="#FCA311"/>
  <path d="M23.3019 16.3523H21.1761V18.3963H23.3019V16.3523Z" fill="#FCA311"/>
  <path d="M23.3019 18.3962H21.1761V20.4403H23.3019V18.3962Z" fill="#FCA311"/>
  <path d="M27.5262 4.08813H25.4004V6.13216H27.5262V4.08813Z" fill="#FCA311"/>
  <path d="M27.5262 6.1322H25.4004V8.17623H27.5262V6.1322Z" fill="#FCA311"/>
  <path d="M29.6247 6.1322H27.499V8.17623H29.6247V6.1322Z" fill="#FCA311"/>
  <path d="M27.5262 8.17615H25.4004V10.2202H27.5262V8.17615Z" fill="#FCA311"/>
  <path d="M25.4004 6.1322H23.2747V8.17623H25.4004V6.1322Z" fill="#FCA311"/>
  <path d="M25.4004 8.17615H23.2747V10.2202H25.4004V8.17615Z" fill="#FCA311"/>
  <path d="M25.4004 10.2203H23.2747V12.2644H25.4004V10.2203Z" fill="#FCA311"/>
  <path d="M23.3019 10.2203H21.1761V12.2644H23.3019V10.2203Z" fill="#FCA311"/>
  <path d="M23.3019 12.2643H21.1761V14.3083H23.3019V12.2643Z" fill="#FCA311"/>
  <path d="M35.9748 12.2643H33.8491V14.3083H35.9748V12.2643Z" fill="#FCA311"/>
  <path d="M35.9748 14.3082H33.8491V16.3523H35.9748V14.3082Z" fill="#FCA311"/>
  <path d="M38.1006 14.3082H35.9749V16.3523H38.1006V14.3082Z" fill="#FCA311"/>
  <path d="M35.9748 16.3523H33.8491V18.3963H35.9748V16.3523Z" fill="#FCA311"/>
  <path d="M33.8763 10.2203H31.7505V12.2644H33.8763V10.2203Z" fill="#FCA311"/>
  <path d="M33.8763 12.2643H31.7505V14.3083H33.8763V12.2643Z" fill="#FCA311"/>
  <path d="M33.8763 14.3082H31.7505V16.3523H33.8763V14.3082Z" fill="#FCA311"/>
  <path d="M33.8763 16.3523H31.7505V18.3963H33.8763V16.3523Z" fill="#FCA311"/>
  <path d="M33.8763 18.3962H31.7505V20.4403H33.8763V18.3962Z" fill="#FCA311"/>
  <path d="M31.7505 8.17615H29.6248V10.2202H31.7505V8.17615Z" fill="#FCA311"/>
  <path d="M31.7505 10.2203H29.6248V12.2644H31.7505V10.2203Z" fill="#FCA311"/>
  <path d="M31.7505 12.2643H29.6248V14.3083H31.7505V12.2643Z" fill="#FCA311"/>
  <path d="M31.7505 14.3082H29.6248V16.3523H31.7505V14.3082Z" fill="#FCA311"/>
  <path d="M31.7505 16.3523H29.6248V18.3963H31.7505V16.3523Z" fill="#FCA311"/>
  <path d="M31.7505 18.3962H29.6248V20.4403H31.7505V18.3962Z" fill="#FCA311"/>
  <path d="M31.7505 20.4404H29.6248V22.4845H31.7505V20.4404Z" fill="#FCA311"/>
  <path d="M23.2746 14.3082H25.4004V12.2642H23.2746V14.3082Z" fill="#FCA311"/>
  <path d="M23.2746 16.3523H25.4004V14.3083H23.2746V16.3523Z" fill="#FCA311"/>
  <path d="M21.1489 16.3523H23.2747V14.3083H21.1489V16.3523Z" fill="#FCA311"/>
  <path d="M23.2746 18.3962H25.4004V16.3522H23.2746V18.3962Z" fill="#FCA311"/>
  <path d="M25.3732 12.2643H27.499V10.2203H25.3732V12.2643Z" fill="#FCA311"/>
  <path d="M25.3732 14.3082H27.499V12.2642H25.3732V14.3082Z" fill="#FCA311"/>
  <path d="M25.3732 16.3523H27.499V14.3083H25.3732V16.3523Z" fill="#FCA311"/>
  <path d="M25.3732 18.3962H27.499V16.3522H25.3732V18.3962Z" fill="#FCA311"/>
  <path d="M25.3732 20.4404H27.499V18.3964H25.3732V20.4404Z" fill="#FCA311"/>
  <path d="M27.499 10.2203H29.6248V8.17631H27.499V10.2203Z" fill="#FCA311"/>
  <path d="M27.499 12.2643H29.6248V10.2203H27.499V12.2643Z" fill="#FCA311"/>
  <path d="M27.499 14.3082H29.6248V12.2642H27.499V14.3082Z" fill="#FCA311"/>
  <path d="M27.499 16.3523H29.6248V14.3083H27.499V16.3523Z" fill="#FCA311"/>
  <path d="M27.499 18.3962H29.6248V16.3522H27.499V18.3962Z" fill="#FCA311"/>
  <path d="M27.499 20.4404H29.6248V18.3964H27.499V20.4404Z" fill="#FCA311"/>
  <path d="M27.499 22.4844H29.6248V20.4403H27.499V22.4844Z" fill="#FCA311"/>
  <path d="M65.6269 10.2203H63.5011V12.2644H65.6269V10.2203Z" fill="#FCA311"/>
  <path d="M65.6269 12.2643H63.5011V14.3083H65.6269V12.2643Z" fill="#FCA311"/>
  <path d="M65.6269 14.3082H63.5011V16.3523H65.6269V14.3082Z" fill="#FCA311"/>
  <path d="M65.6269 16.3523H63.5011V18.3963H65.6269V16.3523Z" fill="#FCA311"/>
  <path d="M65.6269 18.3962H63.5011V20.4403H65.6269V18.3962Z" fill="#FCA311"/>
  <path d="M63.5011 8.17615H61.3753V10.2202H63.5011V8.17615Z" fill="#FCA311"/>
  <path d="M63.5011 10.2203H61.3753V12.2644H63.5011V10.2203Z" fill="#FCA311"/>
  <path d="M63.5011 12.2643H61.3753V14.3083H63.5011V12.2643Z" fill="#FCA311"/>
  <path d="M63.5011 14.3082H61.3753V16.3523H63.5011V14.3082Z" fill="#FCA311"/>
  <path d="M63.5011 16.3523H61.3753V18.3963H63.5011V16.3523Z" fill="#FCA311"/>
  <path d="M63.5011 18.3962H61.3753V20.4403H63.5011V18.3962Z" fill="#FCA311"/>
  <path d="M63.5011 20.4404H61.3753V22.4845H63.5011V20.4404Z" fill="#FCA311"/>
  <path d="M61.3752 8.17615H59.2495V10.2202H61.3752V8.17615Z" fill="#FCA311"/>
  <path d="M61.3752 6.1322H59.2495V8.17623H61.3752V6.1322Z" fill="#FCA311"/>
  <path d="M61.3752 22.4844H59.2495V24.5284H61.3752V22.4844Z" fill="#FCA311"/>
  <path d="M61.3752 10.2203H59.2495V12.2644H61.3752V10.2203Z" fill="#FCA311"/>
  <path d="M61.3752 12.2643H59.2495V14.3083H61.3752V12.2643Z" fill="#FCA311"/>
  <path d="M61.3752 14.3082H59.2495V16.3523H61.3752V14.3082Z" fill="#FCA311"/>
  <path d="M61.3752 16.3523H59.2495V18.3963H61.3752V16.3523Z" fill="#FCA311"/>
  <path d="M61.3752 18.3962H59.2495V20.4403H61.3752V18.3962Z" fill="#FCA311"/>
  <path d="M61.3752 20.4404H59.2495V22.4845H61.3752V20.4404Z" fill="#FCA311"/>
  <path d="M6.35015 20.4404H4.22437V22.4845H6.35015V20.4404Z" fill="#FCA311"/>
  <path d="M6.35015 22.4844H4.22437V24.5284H6.35015V22.4844Z" fill="#FCA311"/>
  <path d="M8.47588 22.4844H6.3501V24.5284H8.47588V22.4844Z" fill="#FCA311"/>
  <path d="M6.35015 24.5283H4.22437V26.5723H6.35015V24.5283Z" fill="#FCA311"/>
  <path d="M4.25158 18.3962H2.12579V20.4403H4.25158V18.3962Z" fill="#FCA311"/>
  <path d="M4.25158 20.4404H2.12579V22.4845H4.25158V20.4404Z" fill="#FCA311"/>
  <path d="M4.25158 22.4844H2.12579V24.5284H4.25158V22.4844Z" fill="#FCA311"/>
  <path d="M4.25158 24.5283H2.12579V26.5723H4.25158V24.5283Z" fill="#FCA311"/>
  <path d="M4.25158 26.5724H2.12579V28.6164H4.25158V26.5724Z" fill="#FCA311"/>
  <path d="M2.12579 16.3523H0V18.3963H2.12579V16.3523Z" fill="#FCA311"/>
  <path d="M2.12579 18.3962H0V20.4403H2.12579V18.3962Z" fill="#FCA311"/>
  <path d="M2.12579 20.4404H0V22.4845H2.12579V20.4404Z" fill="#FCA311"/>
  <path d="M2.12579 22.4844H0V24.5284H2.12579V22.4844Z" fill="#FCA311"/>
  <path d="M2.12579 24.5283H0V26.5723H2.12579V24.5283Z" fill="#FCA311"/>
  <path d="M2.12579 26.5724H0V28.6164H2.12579V26.5724Z" fill="#FCA311"/>
  <path d="M2.12579 28.6163H0V30.6604H2.12579V28.6163Z" fill="#FCA311"/>
  <path d="M6.35015 4.08813H4.22437V6.13216H6.35015V4.08813Z" fill="#FCA311"/>
  <path d="M6.35015 6.1322H4.22437V8.17623H6.35015V6.1322Z" fill="#FCA311"/>
  <path d="M8.47588 6.1322H6.3501V8.17623H8.47588V6.1322Z" fill="#FCA311"/>
  <path d="M6.35015 8.17615H4.22437V10.2202H6.35015V8.17615Z" fill="#FCA311"/>
  <path d="M4.25158 2.04419H2.12579V4.08821H4.25158V2.04419Z" fill="#FCA311"/>
  <path d="M4.25158 4.08813H2.12579V6.13216H4.25158V4.08813Z" fill="#FCA311"/>
  <path d="M4.25158 6.1322H2.12579V8.17623H4.25158V6.1322Z" fill="#FCA311"/>
  <path d="M4.25158 8.17615H2.12579V10.2202H4.25158V8.17615Z" fill="#FCA311"/>
  <path d="M4.25158 10.2203H2.12579V12.2644H4.25158V10.2203Z" fill="#FCA311"/>
  <path d="M2.12579 0H0V2.04403H2.12579V0Z" fill="#FCA311"/>
  <path d="M2.12579 2.04419H0V4.08821H2.12579V2.04419Z" fill="#FCA311"/>
  <path d="M2.12579 4.08813H0V6.13216H2.12579V4.08813Z" fill="#FCA311"/>
  <path d="M2.12579 6.1322H0V8.17623H2.12579V6.1322Z" fill="#FCA311"/>
  <path d="M2.12579 8.17615H0V10.2202H2.12579V8.17615Z" fill="#FCA311"/>
  <path d="M2.12579 10.2203H0V12.2644H2.12579V10.2203Z" fill="#FCA311"/>
  <path d="M2.12579 12.2643H0V14.3083H2.12579V12.2643Z" fill="#FCA311"/>
  <path d="M14.826 12.2643H12.7002V14.3083H14.826V12.2643Z" fill="#FCA311"/>
  <path d="M14.826 14.3082H12.7002V16.3523H14.826V14.3082Z" fill="#FCA311"/>
  <path d="M14.826 16.3523H12.7002V18.3963H14.826V16.3523Z" fill="#FCA311"/>
  <path d="M12.7002 10.2203H10.5744V12.2644H12.7002V10.2203Z" fill="#FCA311"/>
  <path d="M12.7002 12.2643H10.5744V14.3083H12.7002V12.2643Z" fill="#FCA311"/>
  <path d="M12.7002 14.3082H10.5744V16.3523H12.7002V14.3082Z" fill="#FCA311"/>
  <path d="M12.7002 16.3523H10.5744V18.3963H12.7002V16.3523Z" fill="#FCA311"/>
  <path d="M12.7002 18.3962H10.5744V20.4403H12.7002V18.3962Z" fill="#FCA311"/>
  <path d="M10.6017 8.17615H8.47589V10.2202H10.6017V8.17615Z" fill="#FCA311"/>
  <path d="M10.6017 10.2203H8.47589V12.2644H10.6017V10.2203Z" fill="#FCA311"/>
  <path d="M10.6017 12.2643H8.47589V14.3083H10.6017V12.2643Z" fill="#FCA311"/>
  <path d="M10.6017 14.3082H8.47589V16.3523H10.6017V14.3082Z" fill="#FCA311"/>
  <path d="M10.6017 16.3523H8.47589V18.3963H10.6017V16.3523Z" fill="#FCA311"/>
  <path d="M10.6017 18.3962H8.47589V20.4403H10.6017V18.3962Z" fill="#FCA311"/>
  <path d="M10.6017 20.4404H8.47589V22.4845H10.6017V20.4404Z" fill="#FCA311"/>
  <path d="M2.09858 14.3082H4.22437V12.2642H2.09858L2.09858 14.3082Z" fill="#FCA311"/>
  <path d="M2.09858 16.3523H4.22437V14.3083H2.09858L2.09858 16.3523Z" fill="#FCA311"/>
  <path d="M7.39098e-06 16.3523H2.12579L2.12579 14.3083H7.39098e-06L7.39098e-06 16.3523Z" fill="#FCA311"/>
  <path d="M2.09858 18.3962H4.22437V16.3522H2.09858L2.09858 18.3962Z" fill="#FCA311"/>
  <path d="M4.22431 12.2643H6.3501V10.2203H4.22431V12.2643Z" fill="#FCA311"/>
  <path d="M4.22431 14.3082H6.3501V12.2642H4.22431V14.3082Z" fill="#FCA311"/>
  <path d="M4.22431 16.3523H6.3501V14.3083H4.22431V16.3523Z" fill="#FCA311"/>
  <path d="M4.22431 18.3962H6.3501V16.3522H4.22431V18.3962Z" fill="#FCA311"/>
  <path d="M4.22431 20.4404H6.3501V18.3964H4.22431V20.4404Z" fill="#FCA311"/>
  <path d="M6.35011 10.2203H8.47589V8.17631H6.35011V10.2203Z" fill="#FCA311"/>
  <path d="M6.35011 12.2643H8.47589V10.2203H6.35011V12.2643Z" fill="#FCA311"/>
  <path d="M6.35011 14.3082H8.47589V12.2642H6.35011V14.3082Z" fill="#FCA311"/>
  <path d="M6.35011 16.3523H8.47589V14.3083H6.35011V16.3523Z" fill="#FCA311"/>
  <path d="M6.35011 18.3962H8.47589V16.3522H6.35011V18.3962Z" fill="#FCA311"/>
  <path d="M6.35011 20.4404H8.47589V18.3964H6.35011V20.4404Z" fill="#FCA311"/>
  <path d="M6.35011 22.4844H8.47589V20.4403H6.35011V22.4844Z" fill="#FCA311"/>
  <path d="M84.6498 22.4844H86.7756V20.4403H84.6498V22.4844Z" fill="#FCA311"/>
  <path d="M84.6498 24.5283H86.7756V22.4843H84.6498V24.5283Z" fill="#FCA311"/>
  <path d="M82.5241 24.5283H84.6499V22.4843H82.5241V24.5283Z" fill="#FCA311"/>
  <path d="M84.6498 26.5724H86.7756V24.5284H84.6498V26.5724Z" fill="#FCA311"/>
  <path d="M86.7484 20.4404H88.8742V18.3964H86.7484V20.4404Z" fill="#FCA311"/>
  <path d="M86.7484 22.4844H88.8742V20.4403H86.7484V22.4844Z" fill="#FCA311"/>
  <path d="M86.7484 24.5283H88.8742V22.4843H86.7484V24.5283Z" fill="#FCA311"/>
  <path d="M86.7484 26.5724H88.8742V24.5284H86.7484V26.5724Z" fill="#FCA311"/>
  <path d="M86.7484 28.6163H88.8742V26.5723H86.7484V28.6163Z" fill="#FCA311"/>
  <path d="M88.8742 18.3962H91V16.3522H88.8742V18.3962Z" fill="#FCA311"/>
  <path d="M88.8742 20.4404H91V18.3964H88.8742V20.4404Z" fill="#FCA311"/>
  <path d="M88.8742 22.4844H91V20.4403H88.8742V22.4844Z" fill="#FCA311"/>
  <path d="M88.8742 24.5283H91V22.4843H88.8742V24.5283Z" fill="#FCA311"/>
  <path d="M88.8742 26.5724H91V24.5284H88.8742V26.5724Z" fill="#FCA311"/>
  <path d="M88.8742 28.6163H91V26.5723H88.8742V28.6163Z" fill="#FCA311"/>
  <path d="M88.8742 30.6605H91V28.6165H88.8742V30.6605Z" fill="#FCA311"/>
  <path d="M84.6498 6.1322H86.7756V4.08818H84.6498V6.1322Z" fill="#FCA311"/>
  <path d="M84.6498 8.17615H86.7756V6.13212H84.6498V8.17615Z" fill="#FCA311"/>
  <path d="M82.5241 8.17615H84.6499V6.13212H82.5241V8.17615Z" fill="#FCA311"/>
  <path d="M84.6498 10.2203H86.7756V8.17631H84.6498V10.2203Z" fill="#FCA311"/>
  <path d="M86.7484 4.08813H88.8742V2.04411L86.7484 2.04411V4.08813Z" fill="#FCA311"/>
  <path d="M86.7484 6.1322H88.8742V4.08818H86.7484V6.1322Z" fill="#FCA311"/>
  <path d="M86.7484 8.17615H88.8742V6.13212H86.7484V8.17615Z" fill="#FCA311"/>
  <path d="M86.7484 10.2203H88.8742V8.17631H86.7484V10.2203Z" fill="#FCA311"/>
  <path d="M86.7484 12.2643H88.8742V10.2203H86.7484V12.2643Z" fill="#FCA311"/>
  <path d="M88.8742 2.04419L91 2.04419V0.00016427L88.8742 0.00016427V2.04419Z" fill="#FCA311"/>
  <path d="M88.8742 4.08813H91V2.04411L88.8742 2.04411V4.08813Z" fill="#FCA311"/>
  <path d="M88.8742 6.1322H91V4.08818H88.8742V6.1322Z" fill="#FCA311"/>
  <path d="M88.8742 8.17615H91V6.13212H88.8742V8.17615Z" fill="#FCA311"/>
  <path d="M88.8742 10.2203H91V8.17631H88.8742V10.2203Z" fill="#FCA311"/>
  <path d="M88.8742 12.2643H91V10.2203H88.8742V12.2643Z" fill="#FCA311"/>
  <path d="M88.8742 14.3082H91V12.2642H88.8742V14.3082Z" fill="#FCA311"/>
  <path d="M76.174 14.3082H78.2998V12.2642H76.174V14.3082Z" fill="#FCA311"/>
  <path d="M76.174 16.3523H78.2998V14.3083H76.174V16.3523Z" fill="#FCA311"/>
  <path d="M76.174 18.3962H78.2998V16.3522H76.174V18.3962Z" fill="#FCA311"/>
  <path d="M78.2998 12.2643H80.4256V10.2203H78.2998V12.2643Z" fill="#FCA311"/>
  <path d="M78.2998 14.3082H80.4256V12.2642H78.2998V14.3082Z" fill="#FCA311"/>
  <path d="M78.2998 16.3523H80.4256V14.3083H78.2998V16.3523Z" fill="#FCA311"/>
  <path d="M78.2998 18.3962H80.4256V16.3522H78.2998V18.3962Z" fill="#FCA311"/>
  <path d="M78.2998 20.4404H80.4256V18.3964H78.2998V20.4404Z" fill="#FCA311"/>
  <path d="M80.4256 10.2203H82.5514V8.17631H80.4256V10.2203Z" fill="#FCA311"/>
  <path d="M80.4256 12.2643H82.5514V10.2203H80.4256V12.2643Z" fill="#FCA311"/>
  <path d="M80.4256 14.3082H82.5514V12.2642H80.4256V14.3082Z" fill="#FCA311"/>
  <path d="M80.4256 16.3523H82.5514V14.3083H80.4256V16.3523Z" fill="#FCA311"/>
  <path d="M80.4256 18.3962H82.5514V16.3522H80.4256V18.3962Z" fill="#FCA311"/>
  <path d="M80.4256 20.4404H82.5514V18.3964H80.4256V20.4404Z" fill="#FCA311"/>
  <path d="M80.4256 22.4844H82.5514V20.4403H80.4256V22.4844Z" fill="#FCA311"/>
  <path d="M88.9014 12.2643H86.7756V14.3083H88.9014V12.2643Z" fill="#FCA311"/>
  <path d="M88.9014 14.3082H86.7756V16.3523H88.9014V14.3082Z" fill="#FCA311"/>
  <path d="M91 14.3082H88.8742V16.3523H91V14.3082Z" fill="#FCA311"/>
  <path d="M88.9014 16.3523H86.7756V18.3963H88.9014V16.3523Z" fill="#FCA311"/>
  <path d="M86.7757 10.2203H84.6499V12.2644H86.7757V10.2203Z" fill="#FCA311"/>
  <path d="M86.7757 12.2643H84.6499V14.3083H86.7757V12.2643Z" fill="#FCA311"/>
  <path d="M86.7757 14.3082H84.6499V16.3523H86.7757V14.3082Z" fill="#FCA311"/>
  <path d="M86.7757 16.3523H84.6499V18.3963H86.7757V16.3523Z" fill="#FCA311"/>
  <path d="M86.7757 18.3962H84.6499V20.4403H86.7757V18.3962Z" fill="#FCA311"/>
  <path d="M84.6772 8.17615H82.5514V10.2202H84.6772V8.17615Z" fill="#FCA311"/>
  <path d="M84.6772 10.2203H82.5514V12.2644H84.6772V10.2203Z" fill="#FCA311"/>
  <path d="M84.6772 12.2643H82.5514V14.3083H84.6772V12.2643Z" fill="#FCA311"/>
  <path d="M84.6772 14.3082H82.5514V16.3523H84.6772V14.3082Z" fill="#FCA311"/>
  <path d="M84.6772 16.3523H82.5514V18.3963H84.6772V16.3523Z" fill="#FCA311"/>
  <path d="M84.6772 18.3962H82.5514V20.4403H84.6772V18.3962Z" fill="#FCA311"/>
  <path d="M84.6772 20.4404H82.5514V22.4845H84.6772V20.4404Z" fill="#FCA311"/>
  <path d="M38.0734 14.3082H40.1992V12.2642H38.0734V14.3082Z" fill="#FCA311"/>
  <path d="M38.0734 16.3523H40.1992V14.3083H38.0734V16.3523Z" fill="#FCA311"/>
  <path d="M38.0734 18.3962H40.1992V16.3522H38.0734V18.3962Z" fill="#FCA311"/>
  <path d="M40.1992 12.2643H42.325V10.2203H40.1992V12.2643Z" fill="#FCA311"/>
  <path d="M40.1992 14.3082H42.325V12.2642H40.1992V14.3082Z" fill="#FCA311"/>
  <path d="M40.1992 16.3523H42.325V14.3083H40.1992V16.3523Z" fill="#FCA311"/>
  <path d="M40.1992 18.3962H42.325V16.3522H40.1992V18.3962Z" fill="#FCA311"/>
  <path d="M40.1992 20.4404H42.325V18.3964H40.1992V20.4404Z" fill="#FCA311"/>
  <path d="M42.325 10.2203H44.4507V8.17631H42.325V10.2203Z" fill="#FCA311"/>
  <path d="M42.325 12.2643H44.4507V10.2203H42.325V12.2643Z" fill="#FCA311"/>
  <path d="M42.325 14.3082H44.4507V12.2642H42.325V14.3082Z" fill="#FCA311"/>
  <path d="M42.325 16.3523H44.4507V14.3083H42.325V16.3523Z" fill="#FCA311"/>
  <path d="M42.325 18.3962H44.4507V16.3522H42.325V18.3962Z" fill="#FCA311"/>
  <path d="M42.325 20.4404H44.4507V18.3964H42.325V20.4404Z" fill="#FCA311"/>
  <path d="M42.325 22.4844H44.4507V20.4403H42.325V22.4844Z" fill="#FCA311"/>
  <path d="M67.7254 14.3082H65.5996V16.3523H67.7254V14.3082Z" fill="#FCA311"/>
  <path d="M67.7254 14.3082H69.8512V12.2642H67.7254V14.3082Z" fill="#FCA311"/>
  <path d="M67.7254 16.3523H69.8512V14.3083H67.7254V16.3523Z" fill="#FCA311"/>
  <path d="M67.7254 18.3962H69.8512V16.3522H67.7254V18.3962Z" fill="#FCA311"/>
  <path d="M69.8239 12.2643H71.9497V10.2203H69.8239V12.2643Z" fill="#FCA311"/>
  <path d="M69.8239 14.3082H71.9497V12.2642H69.8239V14.3082Z" fill="#FCA311"/>
  <path d="M69.8239 16.3523H71.9497V14.3083H69.8239V16.3523Z" fill="#FCA311"/>
  <path d="M69.8239 18.3962H71.9497V16.3522H69.8239V18.3962Z" fill="#FCA311"/>
  <path d="M69.8239 20.4404H71.9497V18.3964H69.8239V20.4404Z" fill="#FCA311"/>
  <path d="M71.9497 10.2203H74.0755V8.17631H71.9497V10.2203Z" fill="#FCA311"/>
  <path d="M71.9497 12.2643H74.0755V10.2203H71.9497V12.2643Z" fill="#FCA311"/>
  <path d="M71.9497 14.3082H74.0755V12.2642H71.9497V14.3082Z" fill="#FCA311"/>
  <path d="M71.9497 16.3523H74.0755V14.3083H71.9497V16.3523Z" fill="#FCA311"/>
  <path d="M71.9497 18.3962H74.0755V16.3522H71.9497V18.3962Z" fill="#FCA311"/>
  <path d="M71.9497 20.4404H74.0755V18.3964H71.9497V20.4404Z" fill="#FCA311"/>
  <path d="M74.0754 12.2643H76.2012V10.2203H74.0754V12.2643Z" fill="#FCA311"/>
  <path d="M74.0754 14.3082H76.2012V12.2642H74.0754V14.3082Z" fill="#FCA311"/>
  <path d="M74.0754 16.3523H76.2012V14.3083H74.0754V16.3523Z" fill="#FCA311"/>
  <path d="M74.0754 18.3962H76.2012V16.3522H74.0754V18.3962Z" fill="#FCA311"/>
  <path d="M74.0754 20.4404H76.2012V18.3964H74.0754V20.4404Z" fill="#FCA311"/>
  <path d="M71.9497 22.4844H74.0755V20.4403H71.9497V22.4844Z" fill="#FCA311"/>
  <path d="M52.8994 22.4844H55.0251V20.4403H52.8994V22.4844Z" fill="#FCA311"/>
  <path d="M52.8994 24.5283H55.0251V22.4843H52.8994V24.5283Z" fill="#FCA311"/>
  <path d="M50.7736 24.5283H52.8994V22.4843H50.7736V24.5283Z" fill="#FCA311"/>
  <path d="M52.8994 26.5724H55.0251V24.5284H52.8994V26.5724Z" fill="#FCA311"/>
  <path d="M55.0252 20.4404H57.1509V18.3964H55.0252V20.4404Z" fill="#FCA311"/>
  <path d="M55.0252 22.4844H57.1509V20.4403H55.0252V22.4844Z" fill="#FCA311"/>
  <path d="M55.0252 24.5283H57.1509V22.4843H55.0252V24.5283Z" fill="#FCA311"/>
  <path d="M55.0252 26.5724H57.1509V24.5284H55.0252V26.5724Z" fill="#FCA311"/>
  <path d="M55.0252 28.6163H57.1509V26.5723H55.0252V28.6163Z" fill="#FCA311"/>
  <path d="M57.1237 18.3962H59.2495V16.3522H57.1237V18.3962Z" fill="#FCA311"/>
  <path d="M57.1237 20.4404H59.2495V18.3964H57.1237V20.4404Z" fill="#FCA311"/>
  <path d="M57.1237 22.4844H59.2495V20.4403H57.1237V22.4844Z" fill="#FCA311"/>
  <path d="M57.1237 24.5283H59.2495V22.4843H57.1237V24.5283Z" fill="#FCA311"/>
  <path d="M57.1237 26.5724H59.2495V24.5284H57.1237V26.5724Z" fill="#FCA311"/>
  <path d="M57.1237 28.6163H59.2495V26.5723H57.1237V28.6163Z" fill="#FCA311"/>
  <path d="M57.1237 30.6605H59.2495V28.6165H57.1237V30.6605Z" fill="#FCA311"/>
  <path d="M52.8994 6.1322H55.0251V4.08818H52.8994V6.1322Z" fill="#FCA311"/>
  <path d="M52.8994 8.17615H55.0251V6.13212H52.8994V8.17615Z" fill="#FCA311"/>
  <path d="M50.7736 8.17615H52.8994V6.13212H50.7736V8.17615Z" fill="#FCA311"/>
  <path d="M52.8994 10.2203H55.0251V8.17631H52.8994V10.2203Z" fill="#FCA311"/>
  <path d="M55.0252 4.08813H57.1509V2.04411L55.0252 2.04411V4.08813Z" fill="#FCA311"/>
  <path d="M55.0252 6.1322H57.1509V4.08818H55.0252V6.1322Z" fill="#FCA311"/>
  <path d="M55.0252 8.17615H57.1509V6.13212H55.0252V8.17615Z" fill="#FCA311"/>
  <path d="M55.0252 10.2203H57.1509V8.17631H55.0252V10.2203Z" fill="#FCA311"/>
  <path d="M55.0252 12.2643H57.1509V10.2203H55.0252V12.2643Z" fill="#FCA311"/>
  <path d="M57.1237 2.04419L59.2495 2.04419V0.00016427L57.1237 0.00016427V2.04419Z" fill="#FCA311"/>
  <path d="M57.1237 4.08813H59.2495V2.04411L57.1237 2.04411V4.08813Z" fill="#FCA311"/>
  <path d="M57.1237 6.1322H59.2495V4.08818H57.1237V6.1322Z" fill="#FCA311"/>
  <path d="M57.1237 8.17615H59.2495V6.13212H57.1237V8.17615Z" fill="#FCA311"/>
  <path d="M57.1237 10.2203H59.2495V8.17631H57.1237V10.2203Z" fill="#FCA311"/>
  <path d="M57.1237 12.2643H59.2495V10.2203H57.1237V12.2643Z" fill="#FCA311"/>
  <path d="M57.1237 14.3082H59.2495V12.2642H57.1237V14.3082Z" fill="#FCA311"/>
  <path d="M44.4235 14.3082H46.5493V12.2642H44.4235V14.3082Z" fill="#FCA311"/>
  <path d="M44.4235 16.3523H46.5493V14.3083H44.4235V16.3523Z" fill="#FCA311"/>
  <path d="M44.4235 18.3962H46.5493V16.3522H44.4235V18.3962Z" fill="#FCA311"/>
  <path d="M46.5493 12.2643H48.675V10.2203H46.5493V12.2643Z" fill="#FCA311"/>
  <path d="M46.5493 14.3082H48.675V12.2642H46.5493V14.3082Z" fill="#FCA311"/>
  <path d="M46.5493 16.3523H48.675V14.3083H46.5493V16.3523Z" fill="#FCA311"/>
  <path d="M46.5493 18.3962H48.675V16.3522H46.5493V18.3962Z" fill="#FCA311"/>
  <path d="M46.5493 20.4404H48.675V18.3964H46.5493V20.4404Z" fill="#FCA311"/>
  <path d="M48.6751 10.2203H50.8008V8.17631H48.6751V10.2203Z" fill="#FCA311"/>
  <path d="M48.6751 12.2643H50.8008V10.2203H48.6751V12.2643Z" fill="#FCA311"/>
  <path d="M48.6751 14.3082H50.8008V12.2642H48.6751V14.3082Z" fill="#FCA311"/>
  <path d="M48.6751 16.3523H50.8008V14.3083H48.6751V16.3523Z" fill="#FCA311"/>
  <path d="M48.6751 18.3962H50.8008V16.3522H48.6751V18.3962Z" fill="#FCA311"/>
  <path d="M48.6751 20.4404H50.8008V18.3964H48.6751V20.4404Z" fill="#FCA311"/>
  <path d="M48.6751 22.4844H50.8008V20.4403H48.6751V22.4844Z" fill="#FCA311"/>
  <path d="M57.1509 12.2643H55.0251V14.3083H57.1509V12.2643Z" fill="#FCA311"/>
  <path d="M57.1509 14.3082H55.0251V16.3523H57.1509V14.3082Z" fill="#FCA311"/>
  <path d="M59.2767 14.3082H57.1509V16.3523H59.2767V14.3082Z" fill="#FCA311"/>
  <path d="M57.1509 16.3523H55.0251V18.3963H57.1509V16.3523Z" fill="#FCA311"/>
  <path d="M55.0252 10.2203H52.8994V12.2644H55.0252V10.2203Z" fill="#FCA311"/>
  <path d="M55.0252 12.2643H52.8994V14.3083H55.0252V12.2643Z" fill="#FCA311"/>
  <path d="M55.0252 14.3082H52.8994V16.3523H55.0252V14.3082Z" fill="#FCA311"/>
  <path d="M55.0252 16.3523H52.8994V18.3963H55.0252V16.3523Z" fill="#FCA311"/>
  <path d="M55.0252 18.3962H52.8994V20.4403H55.0252V18.3962Z" fill="#FCA311"/>
  <path d="M52.9266 8.17615H50.8008V10.2202H52.9266V8.17615Z" fill="#FCA311"/>
  <path d="M52.9266 10.2203H50.8008V12.2644H52.9266V10.2203Z" fill="#FCA311"/>
  <path d="M52.9266 12.2643H50.8008V14.3083H52.9266V12.2643Z" fill="#FCA311"/>
  <path d="M52.9266 14.3082H50.8008V16.3523H52.9266V14.3082Z" fill="#FCA311"/>
  <path d="M52.9266 16.3523H50.8008V18.3963H52.9266V16.3523Z" fill="#FCA311"/>
  <path d="M52.9266 18.3962H50.8008V20.4403H52.9266V18.3962Z" fill="#FCA311"/>
  <path d="M52.9266 20.4404H50.8008V22.4845H52.9266V20.4404Z" fill="#FCA311"/>
  <path d="M2.12579 34.7484H0V36.7924H2.12579V34.7484Z" fill="white"/>
  <path d="M2.12579 36.7925H0V38.8365H2.12579V36.7925Z" fill="white"/>
  <path d="M2.12579 38.8367H0V40.8807H2.12579V38.8367Z" fill="white"/>
  <path d="M4.25158 38.8367H2.12579V40.8807H4.25158V38.8367Z" fill="white"/>
  <path d="M6.35015 38.8367H4.22437V40.8807H6.35015V38.8367Z" fill="white"/>
  <path d="M8.47588 36.7925H6.3501V38.8365H8.47588V36.7925Z" fill="white"/>
  <path d="M10.6017 34.7484H8.47589V36.7924H10.6017V34.7484Z" fill="white"/>
  <path d="M8.47588 40.8806H6.3501V42.9246H8.47588V40.8806Z" fill="white"/>
  <path d="M10.6017 42.9246H8.47589V44.9686H10.6017V42.9246Z" fill="white"/>
  <path d="M14.826 40.8806H12.7002V42.9246H14.826V40.8806Z" fill="white"/>
  <path d="M14.826 38.8367H12.7002V40.8807H14.826V38.8367Z" fill="white"/>
  <path d="M14.826 36.7925H12.7002V38.8365H14.826V36.7925Z" fill="white"/>
  <path d="M23.2746 40.8806H21.1488V42.9246H23.2746V40.8806Z" fill="white"/>
  <path d="M23.2746 38.8367H21.1488V40.8807H23.2746V38.8367Z" fill="white"/>
  <path d="M27.5262 34.7484H25.4004V36.7924H27.5262V34.7484Z" fill="white"/>
  <path d="M29.6247 34.7484H27.499V36.7924H29.6247V34.7484Z" fill="white"/>
  <path d="M31.7505 34.7484H29.6248V36.7924H31.7505V34.7484Z" fill="white"/>
  <path d="M31.7505 36.7925H29.6248V38.8365H31.7505V36.7925Z" fill="white"/>
  <path d="M31.7505 38.8367H29.6248V40.8807H31.7505V38.8367Z" fill="white"/>
  <path d="M31.7505 40.8806H29.6248V42.9246H31.7505V40.8806Z" fill="white"/>
  <path d="M31.7505 42.9246H29.6248V44.9686H31.7505V42.9246Z" fill="white"/>
  <path d="M33.8763 34.7484H31.7505V36.7924H33.8763V34.7484Z" fill="white"/>
  <path d="M35.9748 34.7484H33.8491V36.7924H35.9748V34.7484Z" fill="white"/>
  <path d="M40.2264 34.7484H38.1006V36.7924H40.2264V34.7484Z" fill="white"/>
  <path d="M42.3249 34.7484H40.1992V36.7924H42.3249V34.7484Z" fill="white"/>
  <path d="M44.4507 34.7484H42.325V36.7924H44.4507V34.7484Z" fill="white"/>
  <path d="M44.4507 36.7925H42.325V38.8365H44.4507V36.7925Z" fill="white"/>
  <path d="M44.4507 38.8367H42.325V40.8807H44.4507V38.8367Z" fill="white"/>
  <path d="M55.0252 38.8367H52.8994V40.8807H55.0252V38.8367Z" fill="white"/>
  <path d="M57.1509 38.8367H55.0251V40.8807H57.1509V38.8367Z" fill="white"/>
  <path d="M59.2494 38.8367H57.1237V40.8807H59.2494V38.8367Z" fill="white"/>
  <path d="M44.4507 40.8806H42.325V42.9246H44.4507V40.8806Z" fill="white"/>
  <path d="M44.4507 42.9246H42.325V44.9686H44.4507V42.9246Z" fill="white"/>
  <path d="M46.5765 34.7484H44.4507V36.7924H46.5765V34.7484Z" fill="white"/>
  <path d="M48.675 34.7484H46.5493V36.7924H48.675V34.7484Z" fill="white"/>
  <path d="M40.2264 42.9246H38.1006V44.9686H40.2264V42.9246Z" fill="white"/>
  <path d="M42.3249 42.9246H40.1992V44.9686H42.3249V42.9246Z" fill="white"/>
  <path d="M46.5765 42.9246H44.4507V44.9686H46.5765V42.9246Z" fill="white"/>
  <path d="M48.675 42.9246H46.5493V44.9686H48.675V42.9246Z" fill="white"/>
  <path d="M82.5514 34.7484H80.4256V36.7924H82.5514V34.7484Z" fill="white"/>
  <path d="M84.6499 34.7484H82.5241V36.7924H84.6499V34.7484Z" fill="white"/>
  <path d="M86.7757 34.7484H84.6499V36.7924H86.7757V34.7484Z" fill="white"/>
  <path d="M86.7757 36.7925H84.6499V38.8365H86.7757V36.7925Z" fill="white"/>
  <path d="M86.7757 38.8367H84.6499V40.8807H86.7757V38.8367Z" fill="white"/>
  <path d="M86.7757 40.8806H84.6499V42.9246H86.7757V40.8806Z" fill="white"/>
  <path d="M86.7757 42.9246H84.6499V44.9686H86.7757V42.9246Z" fill="white"/>
  <path d="M88.9014 34.7484H86.7756V36.7924H88.9014V34.7484Z" fill="white"/>
  <path d="M91 34.7484H88.8742V36.7924H91V34.7484Z" fill="white"/>
  <path d="M82.5514 42.9246H80.4256V44.9686H82.5514V42.9246Z" fill="white"/>
  <path d="M84.6499 42.9246H82.5241V44.9686H84.6499V42.9246Z" fill="white"/>
  <path d="M88.9014 42.9246H86.7756V44.9686H88.9014V42.9246Z" fill="white"/>
  <path d="M91 42.9246H88.8742V44.9686H91V42.9246Z" fill="white"/>
  <path d="M52.9266 34.7484H50.8008V36.7924H52.9266V34.7484Z" fill="white"/>
  <path d="M55.0252 34.7484H52.8994V36.7924H55.0252V34.7484Z" fill="white"/>
  <path d="M57.1509 34.7484H55.0251V36.7924H57.1509V34.7484Z" fill="white"/>
  <path d="M52.9266 36.7925H50.8008V38.8365H52.9266V36.7925Z" fill="white"/>
  <path d="M52.9266 38.8367H50.8008V40.8807H52.9266V38.8367Z" fill="white"/>
  <path d="M52.9266 40.8806H50.8008V42.9246H52.9266V40.8806Z" fill="white"/>
  <path d="M57.1509 42.9246H55.0251V44.9686H57.1509V42.9246Z" fill="white"/>
  <path d="M59.2494 34.7484H57.1237V36.7924H59.2494V34.7484Z" fill="white"/>
  <path d="M61.3752 34.7484H59.2495V36.7924H61.3752V34.7484Z" fill="white"/>
  <path d="M61.3752 36.7925H59.2495V38.8365H61.3752V36.7925Z" fill="white"/>
  <path d="M61.3752 40.8806H59.2495V42.9246H61.3752V40.8806Z" fill="white"/>
  <path d="M52.9266 42.9246H50.8008V44.9686H52.9266V42.9246Z" fill="white"/>
  <path d="M55.0252 42.9246H52.8994V44.9686H55.0252V42.9246Z" fill="white"/>
  <path d="M59.2494 42.9246H57.1237V44.9686H59.2494V42.9246Z" fill="white"/>
  <path d="M61.3752 42.9246H59.2495V44.9686H61.3752V42.9246Z" fill="white"/>
  <path d="M71.977 38.8367H69.8512V40.8807H71.977V38.8367Z" fill="white"/>
  <path d="M74.0755 38.8367H71.9497V40.8807H74.0755V38.8367Z" fill="white"/>
  <path d="M76.2013 38.8367H74.0755V40.8807H76.2013V38.8367Z" fill="white"/>
  <path d="M78.2998 38.8367H76.174V40.8807H78.2998V38.8367Z" fill="white"/>
  <path d="M69.8512 34.7484H67.7254V36.7924H69.8512V34.7484Z" fill="white"/>
  <path d="M71.977 34.7484H69.8512V36.7924H71.977V34.7484Z" fill="white"/>
  <path d="M74.0755 34.7484H71.9497V36.7924H74.0755V34.7484Z" fill="white"/>
  <path d="M69.8512 36.7925H67.7254V38.8365H69.8512V36.7925Z" fill="white"/>
  <path d="M69.8512 38.8367H67.7254V40.8807H69.8512V38.8367Z" fill="white"/>
  <path d="M69.8512 40.8806H67.7254V42.9246H69.8512V40.8806Z" fill="white"/>
  <path d="M76.2013 34.7484H74.0755V36.7924H76.2013V34.7484Z" fill="white"/>
  <path d="M78.2998 34.7484H76.174V36.7924H78.2998V34.7484Z" fill="white"/>
  <path d="M78.2998 36.7925H76.174V38.8365H78.2998V36.7925Z" fill="white"/>
  <path d="M78.2998 40.8806H76.174V42.9246H78.2998V40.8806Z" fill="white"/>
  <path d="M69.8512 42.9246H67.7254V44.9686H69.8512V42.9246Z" fill="white"/>
  <path d="M78.2998 42.9246H76.174V44.9686H78.2998V42.9246Z" fill="white"/>
  <path d="M65.5996 42.9246H63.4738V44.9686H65.5996V42.9246Z" fill="white"/>
  <path d="M23.2746 36.7925H21.1488V38.8365H23.2746V36.7925Z" fill="white"/>
  <path d="M16.9518 34.7484H14.826V36.7924H16.9518V34.7484Z" fill="white"/>
  <path d="M19.0503 34.7484H16.9245V36.7924H19.0503V34.7484Z" fill="white"/>
  <path d="M21.1761 34.7484H19.0503V36.7924H21.1761V34.7484Z" fill="white"/>
  <path d="M16.9518 42.9246H14.826V44.9686H16.9518V42.9246Z" fill="white"/>
  <path d="M19.0503 42.9246H16.9245V44.9686H19.0503V42.9246Z" fill="white"/>
  <path d="M21.1761 42.9246H19.0503V44.9686H21.1761V42.9246Z" fill="white"/>
  <path d="M2.12579 40.8806H0V42.9246H2.12579V40.8806Z" fill="white"/>
  <path d="M2.12579 42.9246H0V44.9686H2.12579V42.9246Z" fill="white"/>
</svg>